control3min_grf.mot
version=1
nRows=30
nColumns 19
inDegrees=yes
endheader
time	1_ground_force_vx	1_ground_force_vy	1_ground_force_vz	1_ground_force_px	1_ground_force_py	1_ground_force_pz	1_ground_torque_x	1_ground_torque_y	1_ground_torque_z	2_ground_force_vx	2_ground_force_vy	2_ground_force_vz	2_ground_force_px	2_ground_force_py	2_ground_force_pz	2_ground_torque_x	2_ground_torque_y	2_ground_torque_z
            1.253500	          -15.495034	          701.845076	          -56.199695	           -0.209801	            0.006311	           -0.424942	           -0.092817	            4.204131	           -0.336642	          -51.626339	          707.825323	           67.543361	           -0.185566	            0.005846	           -0.706716	            0.198078	           -2.715758	           -0.259148
            1.254000	          -15.358742	          702.387835	          -56.656277	           -0.209969	            0.006311	           -0.424810	           -0.091658	            4.191708	           -0.338113	          -51.675726	          708.560834	           67.827578	           -0.185773	            0.005846	           -0.706875	            0.197540	           -2.708599	           -0.259283
            1.254500	          -15.175712	          702.388460	          -56.794304	           -0.209838	            0.006311	           -0.424920	           -0.087966	            4.071388	           -0.329208	          -51.723681	          708.927105	           68.345114	           -0.185651	            0.005846	           -0.706900	            0.188737	           -2.586841	           -0.249388
            1.255000	          -15.177582	          702.031332	          -57.575396	           -0.209972	            0.006311	           -0.424783	           -0.084645	            3.915228	           -0.321098	          -51.677390	          709.110517	           68.580399	           -0.185856	            0.005846	           -0.706938	            0.184457	           -2.531093	           -0.244790
            1.255500	          -15.040167	          702.031555	          -57.621597	           -0.210003	            0.006311	           -0.424754	           -0.081632	            3.810336	           -0.312746	          -51.446880	          710.214321	           69.147379	           -0.185906	            0.005846	           -0.707089	            0.179592	           -2.479230	           -0.241381
            1.256000	          -15.040718	          701.311672	          -57.899824	           -0.210080	            0.006311	           -0.424893	           -0.082233	            3.834307	           -0.316558	          -51.351088	          709.661339	           69.380001	           -0.185867	            0.005847	           -0.707334	            0.180144	           -2.489557	           -0.243391
            1.256500	          -15.040898	          701.672339	          -57.944131	           -0.209926	            0.006310	           -0.424676	           -0.083027	            3.873297	           -0.319857	          -50.882317	          709.660855	           69.989875	           -0.185792	            0.005847	           -0.707368	            0.174374	           -2.432014	           -0.239856
            1.257000	          -14.903432	          700.771522	          -58.040048	           -0.210071	            0.006311	           -0.424846	           -0.082959	            3.900807	           -0.323077	          -50.647922	          709.660529	           70.318264	           -0.185918	            0.005847	           -0.707260	            0.176180	           -2.468574	           -0.244604
            1.257500	          -14.903723	          699.870950	          -58.227337	           -0.210016	            0.006312	           -0.425021	           -0.082455	            3.872058	           -0.322145	          -50.602887	          710.211675	           70.742576	           -0.186080	            0.005847	           -0.707452	            0.164914	           -2.314564	           -0.230548
            1.258000	          -14.858467	          700.592808	          -58.407783	           -0.210112	            0.006310	           -0.424664	           -0.078312	            3.692511	           -0.307841	          -50.083421	          709.107565	           71.019983	           -0.186031	            0.005847	           -0.707442	            0.164211	           -2.324992	           -0.232857
            1.258500	          -14.721393	          700.593621	          -58.591548	           -0.210169	            0.006310	           -0.424671	           -0.075342	            3.585537	           -0.299863	          -49.990828	          709.474344	           71.537459	           -0.186038	            0.005848	           -0.707728	            0.157971	           -2.241936	           -0.226058
            1.259000	          -14.446953	          700.234261	          -58.868912	           -0.210091	            0.006310	           -0.424557	           -0.072832	            3.530122	           -0.296778	          -50.270992	          709.287074	           72.146994	           -0.186038	            0.005848	           -0.707783	            0.151233	           -2.133794	           -0.217044
            1.259500	          -14.355800	          698.793530	          -59.196318	           -0.210139	            0.006311	           -0.424792	           -0.073059	            3.556286	           -0.301261	          -49.474467	          709.289280	           72.334368	           -0.186298	            0.005847	           -0.707863	            0.151473	           -2.171590	           -0.221462
            1.260000	          -14.447274	          698.252549	          -59.152550	           -0.210087	            0.006310	           -0.424736	           -0.075528	            3.650352	           -0.309240	          -49.332377	          708.919832	           72.802275	           -0.186250	            0.005847	           -0.707854	            0.148614	           -2.135624	           -0.219317
            1.260500	          -14.401056	          698.071672	          -59.015873	           -0.210190	            0.006310	           -0.424528	           -0.074771	            3.624447	           -0.306415	          -48.768767	          708.552911	           72.988434	           -0.186283	            0.005847	           -0.707794	            0.144731	           -2.102769	           -0.216607
            1.261000	          -14.080446	          697.171283	          -59.203957	           -0.210006	            0.006311	           -0.424756	           -0.072798	            3.604492	           -0.306094	          -48.488150	          708.736500	           73.411317	           -0.186321	            0.005848	           -0.708041	            0.143326	           -2.094952	           -0.216996
            1.261500	          -14.126418	          696.630779	          -59.297875	           -0.210146	            0.006310	           -0.424538	           -0.069754	            3.439836	           -0.292802	          -48.109323	          707.632674	           73.501072	           -0.186417	            0.005848	           -0.708117	            0.138325	           -2.034596	           -0.211331
            1.262000	          -13.988740	          695.188877	          -59.350252	           -0.210045	            0.006310	           -0.424647	           -0.067461	            3.352585	           -0.286220	          -47.828075	          707.632517	           73.829456	           -0.186420	            0.005848	           -0.708174	            0.135244	           -2.000978	           -0.208768
            1.262500	          -13.805580	          695.729998	          -59.394247	           -0.210028	            0.006309	           -0.424380	           -0.065890	            3.320492	           -0.283469	          -47.359416	          707.632870	           74.204682	           -0.186448	            0.005848	           -0.708204	            0.132501	           -1.979792	           -0.207607
            1.263000	          -13.989243	          694.829390	          -59.581081	           -0.210055	            0.006308	           -0.424263	           -0.067882	            3.371640	           -0.289116	          -47.169234	          706.895980	           74.483543	           -0.186642	            0.005847	           -0.708209	            0.130607	           -1.957321	           -0.206237
            1.263500	          -13.714198	          693.027315	          -59.727057	           -0.209972	            0.006310	           -0.424602	           -0.067202	            3.395948	           -0.292672	          -46.655155	          707.265620	           74.625414	           -0.186671	            0.005848	           -0.708545	            0.126593	           -1.919075	           -0.202487
            1.264000	          -14.034871	          693.026860	          -59.634549	           -0.209915	            0.006309	           -0.424300	           -0.068102	            3.362792	           -0.289366	          -45.853223	          705.793909	           74.995244	           -0.186658	            0.005847	           -0.708262	            0.123041	           -1.893896	           -0.201239
            1.264500	          -14.034368	          693.386469	          -59.403727	           -0.209959	            0.006307	           -0.424007	           -0.067562	            3.337998	           -0.285973	          -45.572661	          705.978121	           75.277350	           -0.186822	            0.005848	           -0.708637	            0.125512	           -1.944342	           -0.207322
            1.265000	          -13.850388	          690.682353	          -59.369917	           -0.209974	            0.006308	           -0.424255	           -0.065306	            3.256661	           -0.279937	          -45.049318	          703.770004	           75.316182	           -0.186828	            0.005847	           -0.708336	            0.117376	           -1.833670	           -0.196236
            1.265500	          -13.483546	          690.141535	          -59.373146	           -0.209804	            0.006308	           -0.424166	           -0.062487	            3.198326	           -0.275153	          -44.584667	          704.875368	           75.648414	           -0.186874	            0.005849	           -0.708829	            0.114898	           -1.816520	           -0.194952
            1.266000	          -13.482354	          687.976971	          -59.061434	           -0.209789	            0.006309	           -0.424405	           -0.062202	            3.174054	           -0.272486	          -44.112697	          703.955246	           75.973434	           -0.186903	            0.005848	           -0.708672	            0.109775	           -1.751796	           -0.189060
            1.266500	          -13.436996	          686.896627	          -59.341321	           -0.209659	            0.006310	           -0.424526	           -0.062830	            3.211865	           -0.277475	          -43.224442	          704.509984	           76.209659	           -0.187130	            0.005848	           -0.708963	            0.105547	           -1.720293	           -0.186091
            1.267000	          -13.848472	          684.551883	          -59.075210	           -0.209692	            0.006310	           -0.424651	           -0.064075	            3.167318	           -0.273332	          -42.749834	          702.853344	           76.485115	           -0.187211	            0.005848	           -0.708884	            0.104138	           -1.712142	           -0.186317
            1.267500	          -13.481678	          683.650792	          -59.125837	           -0.209488	            0.006310	           -0.424659	           -0.064143	            3.252661	           -0.281308	          -42.605943	          701.932920	           76.528706	           -0.187408	            0.005847	           -0.708970	            0.097923	           -1.613281	           -0.175889
            1.268000	          -13.710324	          683.649764	          -58.895993	           -0.209715	            0.006308	           -0.424257	           -0.062356	            3.109288	           -0.267863	          -41.574441	          701.751390	           76.856099	           -0.187414	            0.005848	           -0.709123	            0.098779	           -1.667332	           -0.182607
